#!OML:ASF H:\ManfredETheater\Project 1\Capture day 1\Session 1\subject.ASF
:FULLY-SPECIFIED
:DEGREES
193
root -4.8188 16.325 -42.7371 -158.799 -21.7889 170.176
lowerback 18.1675 3.50646 -6.15836
upperback 0.204375 2.69392 -3.56588
thorax -10.1318 1.35965 -1.11262
lowerneck -13.0741 -8.1803 -8.24542
upperneck -8.48326 -10.4493 8.66862
head 0.460098 -5.34328 3.75481
rclavicle 1.55052e-014 -1.59028e-015
rhumerus -33.9049 -17.0404 -76.939
rradius 30.6464
rwrist -2.41395
rhand -23.1265 -5.04074
rfingers 7.12502
rthumb 3.32092 -34.9946
lclavicle 1.55052e-014 -1.59028e-015
lhumerus -47.5809 -0.960036 83.5696
lradius 103.218
lwrist 7.27249
lhand -28.3414 -18.1547
lfingers 7.12502
lthumb -1.7156 11.8182
rfemur -27.3678 -14.0759 15.1175
rtibia 108.796
rfoot -0.877088 1.22539
rtoes -12.1636
lfemur -56.8338 0.459565 -30.3123
ltibia 68.5693
lfoot -20.3533 -13.2862
ltoes -0.311706
194
root -4.93982 16.3658 -43.1928 -158.951 -21.321 169.628
lowerback 18.2027 3.13636 -6.38334
upperback 0.0964532 2.1326 -3.63478
thorax -10.2617 1.10301 -0.915335
lowerneck -13.3086 -7.77329 -8.0839
upperneck -7.86464 -9.9038 8.3643
head 0.63204 -5.05297 3.6385
rclavicle 1.47101e-014 4.09496e-014
rhumerus -36.3457 -17.7974 -75.9223
rradius 30.0867
rwrist -1.00174
rhand -23.1232 -4.37901
rfingers 7.12502
rthumb 3.32409 -34.3328
lclavicle 1.47101e-014 4.09496e-014
lhumerus -46.5476 -1.6022 82.9186
lradius 103.721
lwrist 7.1045
lhand -28.1557 -18.8216
lfingers 7.12502
lthumb -1.53632 11.1526
rfemur -30.8751 -14.0978 15.0852
rtibia 108.855
rfoot -2.87478 1.19649
rtoes -15.2769
lfemur -54.6627 0.706229 -30.4122
ltibia 68.919
lfoot -21.3451 -13.8213
ltoes -2.603
195
root -5.05851 16.4037 -43.645 -159.137 -20.6719 168.919
lowerback 18.2516 2.758 -6.94293
upperback -0.0626154 1.46792 -3.76068
thorax -10.4596 0.811874 -0.566044
lowerneck -13.3165 -7.20124 -7.63285
upperneck -7.20719 -9.18186 7.91276
head 0.742258 -4.68052 3.44015
rclavicle -3.06128e-014 6.0033e-014
rhumerus -38.7085 -17.8244 -75.1732
rradius 29.7469
rwrist -0.16388
rhand -22.949 -3.52386
rfingers 7.12502
rthumb 3.49239 -33.475
lclavicle -3.06128e-014 6.0033e-014
lhumerus -45.8028 -2.02102 82.307
lradius 104.68
lwrist 7.90706
lhand -28.5535 -17.6514
lfingers 7.12502
lthumb -1.92049 12.3197
rfemur -34.295 -13.847 14.8764
rtibia 108.355
rfoot -4.88982 0.895493
rtoes -19.0553
lfemur -52.4041 0.922829 -30.7485
ltibia 69.1365
lfoot -22.3154 -13.9959
ltoes -6.33106
196
root -5.1753 16.4459 -44.1003 -159.392 -20.0571 168.087
lowerback 18.4336 2.45292 -7.61895
upperback -0.113488 0.870878 -3.798
thorax -10.6092 0.559395 -0.0706382
lowerneck -13.802 -6.76042 -7.49776
upperneck -6.30721 -8.56899 7.46787
head 1.04513 -4.34946 3.27739
rclavicle 7.45443e-014 1.82882e-014
rhumerus -40.603 -17.3866 -74.4147
rradius 29.5527
rwrist 0.0194221
rhand -22.6049 -2.75391
rfingers 7.12502
rthumb 3.82466 -32.6993
lclavicle 7.45443e-014 1.82882e-014
lhumerus -44.8265 -2.25923 81.9917
lradius 105.402
lwrist 8.53399
lhand -28.3566 -17.3629
lfingers 7.12502
lthumb -1.73028 12.6099
rfemur -37.5638 -13.2299 14.3281
rtibia 107.471
rfoot -6.8604 0.78097
rtoes -18.9698
lfemur -49.9959 1.00353 -31.1976
ltibia 69.2754
lfoot -22.2952 -14.132
ltoes -7.79754
197
root -5.2953 16.5012 -44.5745 -159.813 -19.6748 167.593
lowerback 18.4713 2.03774 -8.0584
upperback -0.132716 0.227785 -3.68683
thorax -10.6203 0.282042 0.475662
lowerneck -14.316 -6.25134 -7.23952
upperneck -5.37365 -7.87966 6.95322
head 1.35367 -3.98554 3.0787
rclavicle -5.38706e-014 4.81059e-014
rhumerus -42.3114 -16.0157 -74.058
rradius 29.7294
rwrist -0.641702
rhand -22.1508 -2.06465
rfingers 7.12502
rthumb 4.2632 -32.0017
lclavicle -5.38706e-014 4.81059e-014
lhumerus -43.9337 -2.10842 81.5292
lradius 106.031
lwrist 8.90044
lhand -27.3574 -16.923
lfingers 7.12502
lthumb -0.765273 13.0553
rfemur -40.3125 -12.43 14.2319
rtibia 105.826
rfoot -8.72697 0.0218754
rtoes -20.2306
lfemur -47.4412 1.01165 -31.2729
ltibia 69.371
lfoot -22.2838 -14.2719
ltoes -10.7358
198
root -5.41143 16.5502 -45.0359 -159.823 -19.3567 167.191
lowerback 18.1964 1.54724 -8.40663
upperback -0.309791 -0.451526 -3.55474
thorax -10.6142 -0.00641855 1.00218
lowerneck -14.8683 -5.67825 -6.7895
upperneck -4.382 -7.12844 6.29565
head 1.67519 -3.59748 2.80564
rclavicle 4.00551e-014 3.53837e-014
rhumerus -44.1633 -14.1352 -73.9314
rradius 30.4888
rwrist -1.64521
rhand -21.6544 -1.39843
rfingers 7.12502
rthumb 4.74245 -31.3254
lclavicle 4.00551e-014 3.53837e-014
lhumerus -43.2261 -1.95975 81.1129
lradius 106.674
lwrist 9.64148
lhand -26.6881 -17.4451
lfingers 7.12502
lthumb -0.118893 12.5346
rfemur -43.6799 -11.5025 14.2404
rtibia 103.882
rfoot -10.1211 -0.97057
rtoes -19.8962
lfemur -45.607 0.784551 -31.2468
ltibia 69.4999
lfoot -21.6576 -14.4968
ltoes -13.3614
199
root -5.54652 16.5981 -45.5017 -159.656 -18.9269 166.811
lowerback 17.5807 1.09023 -8.53827
upperback -0.499752 -0.998534 -3.46138
thorax -10.4288 -0.249276 1.32405
lowerneck -15.3807 -5.17181 -6.3714
upperneck -3.47088 -6.46229 5.58346
head 1.97739 -3.25944 2.52168
rclavicle -2.21645e-014 2.94201e-014
rhumerus -46.0913 -12.1308 -73.7903
rradius 31.649
rwrist -2.67084
rhand -21.2136 -0.755914
rfingers 7.12502
rthumb 5.16808 -30.6729
lclavicle -2.21645e-014 2.94201e-014
lhumerus -42.5556 -1.94242 80.9323
lradius 107.415
lwrist 9.96841
lhand -26.4758 -17.2005
lfingers 7.12502
lthumb 0.0861949 12.7792
rfemur -46.9314 -10.4643 14.0889
rtibia 101.337
rfoot -11.1085 -2.40208
rtoes -21.3226
lfemur -44.0385 0.36118 -31.2691
ltibia 69.5846
lfoot -20.9759 -15.0058
ltoes -17.2859
200
root -5.67177 16.6524 -45.9809 -159.685 -18.4422 166.712
lowerback 17.0301 0.68174 -8.6555
upperback -0.688313 -1.4686 -3.26387
thorax -10.2757 -0.450756 1.72247
lowerneck -15.8434 -4.64852 -5.94308
upperneck -2.61634 -5.77802 4.90271
head 2.26265 -2.91752 2.2547
rclavicle 5.58585e-014 -5.40694e-014
rhumerus -48.0942 -10.1785 -73.6283
rradius 33.0699
rwrist -3.33161
rhand -20.9333 -0.147764
rfingers 7.12502
rthumb 5.43878 -30.058
lclavicle 5.58585e-014 -5.40694e-014
lhumerus -42.0978 -1.96882 80.6871
lradius 108.137
lwrist 10.1667
lhand -26.4662 -17.0355
lfingers 7.12502
lthumb 0.0954363 12.9442
rfemur -49.7875 -9.29881 14.0439
rtibia 98.3188
rfoot -11.8229 -3.88962
rtoes -21.4338
lfemur -42.3886 0.0616802 -30.969
ltibia 69.6342
lfoot -19.6544 -15.7142
ltoes -18.9361
201
root -5.79383 16.7142 -46.4747 -159.803 -18.0782 166.395
lowerback 16.5955 0.288673 -8.94069
upperback -0.812563 -1.97513 -3.10342
thorax -10.1046 -0.669422 2.17733
lowerneck -16.2511 -4.13752 -5.43761
upperneck -1.85076 -5.12482 4.1509
head 2.51447 -2.60007 1.95268
rclavicle -1.60022e-014 7.03698e-014
rhumerus -50.1443 -8.48473 -73.3543
rradius 34.6528
rwrist -3.7643
rhand -20.7891 0.438809
rfingers 7.12502
rthumb 5.578 -29.4678
lclavicle -1.60022e-014 7.03698e-014
lhumerus -41.618 -1.96659 80.5139
lradius 108.718
lwrist 10.1049
lhand -26.3489 -17.1939
lfingers 7.12502
lthumb 0.208723 12.7858
rfemur -51.9281 -8.38384 13.725
rtibia 94.7019
rfoot -12.5947 -5.86488
rtoes -24.736
lfemur -40.3986 -0.417034 -30.8008
ltibia 69.411
lfoot -17.8489 -16.7483
ltoes -19.3135
202
root -5.89475 16.7704 -46.9494 -160.154 -17.4701 166.591
lowerback 16.5824 0.118075 -9.01781
upperback -0.951773 -2.1682 -2.78667
thorax -10.2157 -0.72793 2.61233
lowerneck -16.739 -3.73503 -5.16027
upperneck -1.17564 -4.57822 3.47887
head 2.77709 -2.34003 1.7131
rclavicle 3.78685e-014 4.13472e-014
rhumerus -52.0879 -7.16331 -72.8409
rradius 36.3019
rwrist -4.29158
rhand -20.689 0.883196
rfingers 7.12502
rthumb 5.67458 -29.0208
lclavicle 3.78685e-014 4.13472e-014
lhumerus -41.0358 -2.08074 80.5902
lradius 109.281
lwrist 9.87431
lhand -26.4136 -16.9553
lfingers 7.12502
lthumb 0.146304 13.0244
rfemur -53.9699 -7.06361 13.8614
rtibia 90.6858
rfoot -13.3698 -7.90139
rtoes -25.9514
lfemur -38.6189 -0.543573 -30.1296
ltibia 69.068
lfoot -15.0102 -17.6676
ltoes -19.197
203
root -6.0249 16.879 -47.4588 -160.613 -17.4353 166.743
lowerback 15.9474 -0.362483 -8.59286
upperback -0.772024 -2.58141 -2.50117
thorax -9.60196 -0.960573 2.76711
lowerneck -16.8943 -3.27779 -4.85047
upperneck -0.911942 -3.99512 2.89327
head 2.84273 -2.07018 1.50568
rclavicle 1.47101e-014 -3.18055e-014
rhumerus -53.6782 -6.53756 -71.9762
rradius 37.9215
rwrist -4.43727
rhand -20.407 1.36493
rfingers 7.12502
rthumb 5.94693 -28.5316
lclavicle 1.47101e-014 -3.18055e-014
lhumerus -40.2676 -1.81755 80.6878
lradius 109.754
lwrist 9.50865
lhand -26.2851 -16.8948
lfingers 7.12502
lthumb 0.270427 13.0848
rfemur -54.9947 -6.34529 13.6874
rtibia 85.9024
rfoot -13.7642 -9.28164
rtoes -22.7337
lfemur -36.116 -1.20626 -29.4794
ltibia 68.1914
lfoot -12.4693 -18.8163
ltoes -19.5204
204
root -6.15379 16.9835 -47.9796 -161.189 -17.1393 166.928
lowerback 15.8326 -0.663552 -8.25818
upperback -0.824255 -2.86079 -2.24882
thorax -9.56127 -1.09477 2.91397
lowerneck -17.2525 -2.91177 -4.53372
upperneck -0.284575 -3.50488 2.27073
head 3.08379 -1.8422 1.276
rclavicle 2.56432e-014 3.18055e-015
rhumerus -55.8296 -6.14895 -70.8984
rradius 39.9189
rwrist -4.82545
rhand -20.0581 1.7321
rfingers 7.12502
rthumb 6.2837 -28.1547
lclavicle 2.56432e-014 3.18055e-015
lhumerus -39.9749 -1.92631 80.8332
lradius 110.244
lwrist 9.34734
lhand -26.2442 -16.916
lfingers 7.12502
lthumb 0.309936 13.0635
rfemur -55.4753 -5.55025 13.5217
rtibia 80.7704
rfoot -13.5168 -11.0204
rtoes -21.5338
lfemur -33.3631 -1.58923 -28.9459
ltibia 66.9727
lfoot -9.95306 -19.7707
ltoes -20.6025
205
root -6.27014 17.0717 -48.5022 -161.417 -16.6537 166.899
lowerback 15.2266 -0.906393 -8.41675
upperback -0.929857 -3.10946 -1.9993
thorax -9.28103 -1.2012 3.30642
lowerneck -17.3021 -2.53943 -4.28233
upperneck 0.172351 -3.00626 1.71071
head 3.217 -1.61052 1.08358
rclavicle -3.99557e-014 3.97569e-016
rhumerus -57.6779 -5.20535 -70.1003
rradius 41.6852
rwrist -6.1198
rhand -19.8133 1.94271
rfingers 7.12502
rthumb 6.52007 -27.9369
lclavicle -3.99557e-014 3.97569e-016
lhumerus -39.825 -2.02679 81.0658
lradius 110.801
lwrist 9.32745
lhand -26.225 -16.9122
lfingers 7.12502
lthumb 0.328412 13.0672
rfemur -56.1122 -4.85135 13.3009
rtibia 75.3857
rfoot -13.159 -12.9462
rtoes -25.2006
lfemur -30.9968 -1.92393 -28.6931
ltibia 65.3419
lfoot -5.90406 -20.9199
ltoes -18.7941
206
root -6.41597 17.1798 -49.0615 -161.929 -16.4885 166.643
lowerback 14.4764 -1.28449 -8.25423
upperback -0.852233 -3.47687 -1.89701
thorax -8.72384 -1.40793 3.3692
lowerneck -17.278 -2.1977 -4.03829
upperneck 0.632798 -2.54398 1.14758
head 3.34445 -1.39785 0.88925
rclavicle 5.86415e-014 -3.02153e-014
rhumerus -59.6137 -4.60234 -69.1864
rradius 43.4526
rwrist -7.43142
rhand -19.5598 2.26513
rfingers 7.12502
rthumb 6.76475 -27.6068
lclavicle 5.86415e-014 -3.02153e-014
lhumerus -39.7864 -2.19692 81.3133
lradius 111.286
lwrist 9.20686
lhand -26.2135 -17.0036
lfingers 7.12502
lthumb 0.339532 12.9759
rfemur -55.7767 -4.80923 12.6654
rtibia 69.6796
rfoot -13.9634 -13.4473
rtoes -26.0286
lfemur -27.6326 -2.54126 -28.7854
ltibia 63.1325
lfoot -2.13593 -21.6484
ltoes -17.5969
